# Blender 4.5.3 LTS
# www.blender.org
mtllib boxing glove.mtl
o Cube
v 0.210001 1.037085 -1.015198
v 0.634056 -0.862497 -0.810005
v 0.210001 1.037085 0.984802
v 0.586698 -0.956753 0.736297
v -0.793405 0.892282 -0.999559
v -0.525874 -0.996278 -0.872127
v -0.793405 0.892282 1.000441
v -0.599482 -0.871527 0.569948
v -0.779875 -1.015230 -0.332831
v -0.673205 -1.000000 0.333333
v 0.329926 1.385884 -0.348531
v 0.329926 1.385884 0.318135
v -0.913329 1.241081 0.333774
v -0.913329 1.241081 -0.332893
v 0.673205 -1.000000 0.333333
v 0.673205 -1.000000 -0.333333
v 0.553281 -0.080000 -1.000000
v -0.626206 0.375789 0.774030
v 0.540388 -0.108706 1.089950
v -0.659950 -0.095230 -0.999498
v 0.673205 0.080447 -0.333333
v 0.673205 0.080447 0.333333
v -0.673205 0.080447 0.333333
v -0.779875 0.065217 -0.332831
v 0.018867 -0.220210 1.530513
v 0.046345 -0.723409 1.320669
v -0.609059 -0.745597 1.288052
v -0.574626 0.339744 1.215401
v -0.902118 -0.181026 0.686474
v -0.837459 0.317512 0.787734
v -0.864002 -0.146248 1.077383
v -0.872113 0.271757 1.139327
v -0.639601 0.410032 0.866524
v 0.553281 0.460000 -1.000000
v 0.546835 0.445647 1.044975
v -0.606616 0.452385 -0.999749
v 0.673205 0.714623 -0.333333
v 0.673205 0.714623 0.333333
v -0.673205 0.714623 0.333333
v -0.726540 0.707008 -0.333082
vn 0.3008 0.5402 -0.7859
vn 0.6248 -0.5243 -0.5785
vn 0.2964 0.5308 0.7940
vn 0.6095 -0.6744 0.4168
vn -0.6965 0.2293 -0.6800
vn -0.3915 -0.6551 -0.6463
vn -0.6776 0.2311 0.6982
vn -0.6695 -0.7182 0.1898
vn -0.7373 -0.6702 -0.0853
vn -0.6536 -0.7305 0.1979
vn 0.4450 0.8655 -0.2300
vn 0.4450 0.8669 0.2246
vn -0.8129 0.5493 0.1935
vn -0.8168 0.5485 -0.1788
vn 0.7053 -0.6923 0.1526
vn 0.6967 -0.7120 -0.0875
vn 0.6214 -0.0544 -0.7816
vn -0.8151 0.5237 0.2476
vn 0.7689 0.0754 0.6349
vn -0.6206 -0.0606 -0.7818
vn 0.9967 0.0062 -0.0805
vn 0.9960 -0.0018 0.0897
vn -0.9890 -0.0040 0.1481
vn -0.9985 0.0178 -0.0509
vn 0.2565 0.2481 0.9342
vn 0.1765 -0.6131 0.7700
vn -0.5366 -0.5777 0.6152
vn -0.0918 0.7083 0.6999
vn -0.7765 -0.0420 -0.6287
vn -0.6156 0.6127 -0.4956
vn -0.8802 -0.1088 0.4621
vn -0.7435 0.4660 0.4796
vn -0.6051 -0.1874 0.7738
vn 0.6563 0.1284 -0.7435
vn 0.6094 0.0828 0.7885
vn -0.5919 -0.0574 -0.8040
vn 0.9559 0.2571 -0.1421
vn 0.9541 0.2621 0.1447
vn -0.9773 -0.2096 0.0295
vn -0.9834 -0.1817 -0.0016
vt 0.625000 0.666667
vt 0.875000 0.666667
vt 0.875000 0.750000
vt 0.625000 0.750000
vt 0.557500 0.750000
vt 0.625000 1.000000
vt 0.557500 1.000000
vt 0.557500 0.166667
vt 0.625000 0.166667
vt 0.625000 0.250000
vt 0.557500 0.250000
vt 0.125000 0.666667
vt 0.375000 0.666667
vt 0.375000 0.750000
vt 0.125000 0.750000
vt 0.557500 0.666667
vt 0.625000 0.500000
vt 0.557500 0.500000
vt 0.625000 0.583333
vt 0.557500 0.583333
vt 0.167774 0.500000
vt 0.375000 0.500000
vt 0.375000 0.583333
vt 0.125000 0.583333
vt 0.557500 0.000000
vt 0.625000 0.000000
vt 0.625000 0.083333
vt 0.557500 0.083333
vt 0.875000 0.500000
vt 0.875000 0.583333
vt 0.375000 0.083333
vt 0.490000 0.083333
vt 0.490000 0.166667
vt 0.375000 0.166667
vt 0.375000 0.000000
vt 0.490000 0.000000
vt 0.490000 0.583333
vt 0.490000 0.666667
vt 0.490000 0.500000
vt 0.375000 0.292774
vt 0.490000 0.250000
vt 0.490000 0.750000
vt 0.490000 1.000000
vt 0.375000 1.000000
s 1
usemtl Material
f 12/1/12 13/2/13 7/3/7 3/4/3
f 35/5/35 3/4/3 7/6/7 33/7/33
f 40/8/40 14/9/14 5/10/5 36/11/36
f 10/12/10 15/13/15 4/14/4 8/15/8
f 38/16/38 12/1/12 3/4/3 35/5/35
f 36/11/36 5/10/5 1/17/1 34/18/34
f 34/18/34 1/17/1 11/19/11 37/20/37
f 37/20/37 11/19/11 12/1/12 38/16/38
f 6/21/6 2/22/2 16/23/16 9/24/9
f 9/24/9 16/23/16 15/13/15 10/12/10
f 33/25/33 7/26/7 13/27/13 39/28/39
f 39/28/39 13/27/13 14/9/14 40/8/40
f 1/17/1 5/29/5 14/30/14 11/19/11
f 11/19/11 14/30/14 13/2/13 12/1/12
f 10/31/10 23/32/23 24/33/24 9/34/9
f 8/35/8 18/36/18 23/32/23 10/31/10
f 16/23/16 21/37/21 22/38/22 15/13/15
f 2/22/2 17/39/17 21/37/21 16/23/16
f 6/40/6 20/41/20 17/39/17 2/22/2
f 15/13/15 22/38/22 19/42/19 4/14/4
f 9/34/9 24/33/24 20/41/20 6/40/6
f 4/14/4 19/42/19 25/42/25 26/14/26
f 26/14/26 25/42/25 28/43/28 27/44/27
f 27/44/27 28/43/28 32/43/32 31/44/31
f 19/42/19 18/43/18 28/43/28 25/42/25
f 8/15/8 4/14/4 26/14/26 27/15/27
f 30/36/30 29/35/29 31/35/31 32/36/32
f 18/36/18 8/35/8 29/35/29 30/36/30
f 28/43/28 18/43/18 30/43/30 32/43/32
f 8/15/8 27/15/27 31/15/31 29/15/29
f 23/32/23 39/28/39 40/8/40 24/33/24
f 18/36/18 33/25/33 39/28/39 23/32/23
f 21/37/21 37/20/37 38/16/38 22/38/22
f 17/39/17 34/18/34 37/20/37 21/37/21
f 20/41/20 36/11/36 34/18/34 17/39/17
f 22/38/22 38/16/38 35/5/35 19/42/19
f 24/33/24 40/8/40 36/11/36 20/41/20
f 19/42/19 35/5/35 33/7/33 18/43/18
